<svg width="675" height="450" xmlns="http://www.w3.org/2000/svg" xmlns:xlink="http://www.w3.org/1999/xlink" version="1.1" baseProfile="full" viewBox="0 0 675 450">
<rect width="675" height="450" x="0" y="0" id="0" fill="none"></rect>
<path d="M337.5 168.8A56.3 56.3 0 1 1 288.8 253.1L337.5 225Z" fill="#88da40" stroke="white" stroke-linejoin="bevel"></path>
<path d="M337.5 112.5A112.5 112.5 0 0 1 449.4 236.8L393.4 230.9A56.3 56.3 0 0 0 337.5 168.8Z" fill="#569dff" stroke="white" stroke-linejoin="bevel" class="zr0-cls-0"></path>
<path d="M337.5 56.3A168.8 168.8 0 0 1 406.1 70.8L383.3 122.2A112.5 112.5 0 0 0 337.5 112.5Z" fill="#569dff" stroke="white" stroke-linejoin="bevel" class="zr0-cls-1"></path>
<path d="M406.1 70.8A168.8 168.8 0 0 1 462.9 112.1L421.1 149.7A112.5 112.5 0 0 0 383.3 122.2Z" fill="#569dff" stroke="white" stroke-linejoin="bevel" class="zr0-cls-2"></path>
<path d="M462.9 112.1A168.8 168.8 0 0 1 498 172.9L444.5 190.2A112.5 112.5 0 0 0 421.1 149.7Z" fill="#569dff" stroke="white" stroke-linejoin="bevel" class="zr0-cls-3"></path>
<path d="M498 172.9A168.8 168.8 0 0 1 505.3 242.6L449.4 236.8A112.5 112.5 0 0 0 444.5 190.2Z" fill="#569dff" stroke="white" stroke-linejoin="bevel" class="zr0-cls-4"></path>
<path d="M449.4 236.8A112.5 112.5 0 0 1 360.9 335L349.2 280A56.3 56.3 0 0 0 393.4 230.9Z" fill="#569dff" stroke="white" stroke-linejoin="bevel" class="zr0-cls-5"></path>
<path d="M505.3 242.6A168.8 168.8 0 0 1 483.6 309.4L434.9 281.3A112.5 112.5 0 0 0 449.4 236.8Z" fill="#569dff" stroke="white" stroke-linejoin="bevel" class="zr0-cls-6"></path>
<path d="M483.6 309.4A168.8 168.8 0 0 1 436.7 361.5L403.6 316A112.5 112.5 0 0 0 434.9 281.3Z" fill="#569dff" stroke="white" stroke-linejoin="bevel" class="zr0-cls-7"></path>
<path d="M436.7 361.5A168.8 168.8 0 0 1 372.6 390.1L360.9 335A112.5 112.5 0 0 0 403.6 316Z" fill="#569dff" stroke="white" stroke-linejoin="bevel" class="zr0-cls-8"></path>
<path d="M360.9 335A112.5 112.5 0 0 1 271.4 316L304.4 270.5A56.3 56.3 0 0 0 349.2 280Z" fill="#88da40" stroke="white" stroke-linejoin="bevel" class="zr0-cls-9"></path>
<path d="M372.6 390.1A168.8 168.8 0 0 1 302.4 390.1L314.1 335A112.5 112.5 0 0 0 360.9 335Z" fill="#569dff" stroke="white" stroke-linejoin="bevel" class="zr0-cls-10"></path>
<path d="M302.4 390.1A168.8 168.8 0 0 1 238.3 361.5L271.4 316A112.5 112.5 0 0 0 314.1 335Z" fill="#ff6f54" stroke="white" stroke-linejoin="bevel" class="zr0-cls-11"></path>
<path d="M271.4 316A112.5 112.5 0 0 1 240.1 281.3L288.8 253.1A56.3 56.3 0 0 0 304.4 270.5Z" fill="#569dff" stroke="white" stroke-linejoin="bevel" class="zr0-cls-12"></path>
<path d="M238.3 361.5A168.8 168.8 0 0 1 191.4 309.4L240.1 281.3A112.5 112.5 0 0 0 271.4 316Z" fill="#569dff" stroke="white" stroke-linejoin="bevel" class="zr0-cls-13"></path>
<path d="M288.8 253.1A56.3 56.3 0 0 1 337.5 168.8L337.5 225Z" fill="#569dff" stroke="white" stroke-linejoin="bevel"></path>
<path d="M240.1 281.3A112.5 112.5 0 0 1 230.5 190.2L284 207.6A56.3 56.3 0 0 0 288.8 253.1Z" fill="#569dff" stroke="white" stroke-linejoin="bevel" class="zr0-cls-14"></path>
<path d="M191.4 309.4A168.8 168.8 0 0 1 169.7 242.6L225.6 236.8A112.5 112.5 0 0 0 240.1 281.2Z" fill="#569dff" stroke="white" stroke-linejoin="bevel" class="zr0-cls-15"></path>
<path d="M169.7 242.6A168.8 168.8 0 0 1 177 172.9L230.5 190.2A112.5 112.5 0 0 0 225.6 236.8Z" fill="#569dff" stroke="white" stroke-linejoin="bevel" class="zr0-cls-16"></path>
<path d="M230.5 190.2A112.5 112.5 0 0 1 291.7 122.2L314.6 173.6A56.3 56.3 0 0 0 284 207.6Z" fill="#569dff" stroke="white" stroke-linejoin="bevel" class="zr0-cls-17"></path>
<path d="M177 172.9A168.8 168.8 0 0 1 212.1 112.1L253.9 149.7A112.5 112.5 0 0 0 230.5 190.2Z" fill="#569dff" stroke="white" stroke-linejoin="bevel" class="zr0-cls-18"></path>
<path d="M212.1 112.1A168.8 168.8 0 0 1 268.9 70.8L291.7 122.2A112.5 112.5 0 0 0 253.9 149.7Z" fill="#569dff" stroke="white" stroke-linejoin="bevel" class="zr0-cls-19"></path>
<path d="M291.7 122.2A112.5 112.5 0 0 1 337.5 112.5L337.5 168.8A56.3 56.3 0 0 0 314.6 173.6Z" fill="#569dff" stroke="white" stroke-linejoin="bevel" class="zr0-cls-20"></path>
<path d="M268.9 70.8A168.8 168.8 0 0 1 337.5 56.3L337.5 112.5A112.5 112.5 0 0 0 291.7 122.2Z" fill="#569dff" stroke="white" stroke-linejoin="bevel" class="zr0-cls-21"></path>
<text dominant-baseline="central" text-anchor="middle" style="font-size:10px;font-family:sans-serif;" transform="matrix(0.866,0.5,-0.5,0.866,361.857,239.0625)" fill="#333">Validation</text>
<text dominant-baseline="central" text-anchor="middle" style="font-size:10px;font-family:sans-serif;" y="-5" transform="matrix(0.743,-0.669,0.669,0.743,400.2028,168.5421)" fill="#333">Comparat</text>
<text dominant-baseline="central" text-anchor="middle" style="font-size:10px;font-family:sans-serif;" y="5" transform="matrix(0.743,-0.669,0.669,0.743,400.2028,168.5421)" fill="#333">or</text>
<text dominant-baseline="central" text-anchor="middle" style="font-size:10px;font-family:sans-serif;" xml:space="preserve" y="-10" transform="matrix(0.208,-0.978,0.978,0.208,366.7376,87.448)" fill="#333">Suitability </text>
<text dominant-baseline="central" text-anchor="middle" style="font-size:10px;font-family:sans-serif;" xml:space="preserve" transform="matrix(0.208,-0.978,0.978,0.208,366.7376,87.448)" fill="#333">of Test Sa</text>
<text dominant-baseline="central" text-anchor="middle" style="font-size:10px;font-family:sans-serif;" y="10" transform="matrix(0.208,-0.978,0.978,0.208,366.7376,87.448)" fill="#333">mples</text>
<text dominant-baseline="central" text-anchor="middle" style="font-size:10px;font-family:sans-serif;" y="-20" transform="matrix(0.588,-0.809,0.809,0.588,420.1573,111.232)" fill="#333">Uncertaint</text>
<text dominant-baseline="central" text-anchor="middle" style="font-size:10px;font-family:sans-serif;" xml:space="preserve" y="-10" transform="matrix(0.588,-0.809,0.809,0.588,420.1573,111.232)" fill="#333">y of Test </text>
<text dominant-baseline="central" text-anchor="middle" style="font-size:10px;font-family:sans-serif;" xml:space="preserve" transform="matrix(0.588,-0.809,0.809,0.588,420.1573,111.232)" fill="#333">Sample M</text>
<text dominant-baseline="central" text-anchor="middle" style="font-size:10px;font-family:sans-serif;" y="10" transform="matrix(0.588,-0.809,0.809,0.588,420.1573,111.232)" fill="#333">easureme</text>
<text dominant-baseline="central" text-anchor="middle" style="font-size:10px;font-family:sans-serif;" y="20" transform="matrix(0.588,-0.809,0.809,0.588,420.1573,111.232)" fill="#333">nts</text>
<text dominant-baseline="central" text-anchor="middle" style="font-size:10px;font-family:sans-serif;" xml:space="preserve" y="-10" transform="matrix(0.866,-0.5,0.5,0.866,459.2848,154.6875)" fill="#333">Suitability </text>
<text dominant-baseline="central" text-anchor="middle" style="font-size:10px;font-family:sans-serif;" xml:space="preserve" transform="matrix(0.866,-0.5,0.5,0.866,459.2848,154.6875)" fill="#333">of Test C</text>
<text dominant-baseline="central" text-anchor="middle" style="font-size:10px;font-family:sans-serif;" y="10" transform="matrix(0.866,-0.5,0.5,0.866,459.2848,154.6875)" fill="#333">onditions</text>
<text dominant-baseline="central" text-anchor="middle" style="font-size:10px;font-family:sans-serif;" y="-20" transform="matrix(0.995,-0.105,0.105,0.995,477.3546,210.3007)" fill="#333">Uncertaint</text>
<text dominant-baseline="central" text-anchor="middle" style="font-size:10px;font-family:sans-serif;" xml:space="preserve" y="-10" transform="matrix(0.995,-0.105,0.105,0.995,477.3546,210.3007)" fill="#333">y of Test </text>
<text dominant-baseline="central" text-anchor="middle" style="font-size:10px;font-family:sans-serif;" xml:space="preserve" transform="matrix(0.995,-0.105,0.105,0.995,477.3546,210.3007)" fill="#333">Condition </text>
<text dominant-baseline="central" text-anchor="middle" style="font-size:10px;font-family:sans-serif;" y="10" transform="matrix(0.995,-0.105,0.105,0.995,477.3546,210.3007)" fill="#333">Measure</text>
<text dominant-baseline="central" text-anchor="middle" style="font-size:10px;font-family:sans-serif;" y="20" transform="matrix(0.995,-0.105,0.105,0.995,477.3546,210.3007)" fill="#333">ments</text>
<text dominant-baseline="central" text-anchor="middle" style="font-size:10px;font-family:sans-serif;" y="-10" transform="matrix(0.743,0.669,-0.669,0.743,400.2028,281.4579)" fill="#333">Computati</text>
<text dominant-baseline="central" text-anchor="middle" style="font-size:10px;font-family:sans-serif;" xml:space="preserve" transform="matrix(0.743,0.669,-0.669,0.743,400.2028,281.4579)" fill="#333">onal Mod</text>
<text dominant-baseline="central" text-anchor="middle" style="font-size:10px;font-family:sans-serif;" y="10" transform="matrix(0.743,0.669,-0.669,0.743,400.2028,281.4579)" fill="#333">el</text>
<text dominant-baseline="central" text-anchor="middle" style="font-size:10px;font-family:sans-serif;" xml:space="preserve" y="-5" transform="matrix(0.951,0.309,-0.309,0.951,471.2423,268.4555)" fill="#333">Model For</text>
<text dominant-baseline="central" text-anchor="middle" style="font-size:10px;font-family:sans-serif;" y="5" transform="matrix(0.951,0.309,-0.309,0.951,471.2423,268.4555)" fill="#333">m</text>
<text dominant-baseline="central" text-anchor="middle" style="font-size:10px;font-family:sans-serif;" xml:space="preserve" y="-15" transform="matrix(0.743,0.669,-0.669,0.743,442.0047,319.0965)" fill="#333">Input &amp; P</text>
<text dominant-baseline="central" text-anchor="middle" style="font-size:10px;font-family:sans-serif;" xml:space="preserve" y="-5" transform="matrix(0.743,0.669,-0.669,0.743,442.0047,319.0965)" fill="#333">arameter </text>
<text dominant-baseline="central" text-anchor="middle" style="font-size:10px;font-family:sans-serif;" y="5" transform="matrix(0.743,0.669,-0.669,0.743,442.0047,319.0965)" fill="#333">Sensitiviti</text>
<text dominant-baseline="central" text-anchor="middle" style="font-size:10px;font-family:sans-serif;" y="15" transform="matrix(0.743,0.669,-0.669,0.743,442.0047,319.0965)" fill="#333">es</text>
<text dominant-baseline="central" text-anchor="middle" style="font-size:10px;font-family:sans-serif;" xml:space="preserve" y="-15" transform="matrix(0.407,0.914,-0.914,0.407,394.6973,353.4673)" fill="#333">Input &amp; P</text>
<text dominant-baseline="central" text-anchor="middle" style="font-size:10px;font-family:sans-serif;" xml:space="preserve" y="-5" transform="matrix(0.407,0.914,-0.914,0.407,394.6973,353.4673)" fill="#333">arameter </text>
<text dominant-baseline="central" text-anchor="middle" style="font-size:10px;font-family:sans-serif;" y="5" transform="matrix(0.407,0.914,-0.914,0.407,394.6973,353.4673)" fill="#333">Uncertaint</text>
<text dominant-baseline="central" text-anchor="middle" style="font-size:10px;font-family:sans-serif;" y="15" transform="matrix(0.407,0.914,-0.914,0.407,394.6973,353.4673)" fill="#333">ies</text>
<text dominant-baseline="central" text-anchor="middle" style="font-size:10px;font-family:sans-serif;" y="-5" transform="matrix(0.208,-0.978,0.978,0.208,319.9575,307.5312)" fill="#333">Applicabili</text>
<text dominant-baseline="central" text-anchor="middle" style="font-size:10px;font-family:sans-serif;" y="5" transform="matrix(0.208,-0.978,0.978,0.208,319.9575,307.5312)" fill="#333">ty</text>
<text dominant-baseline="central" text-anchor="middle" style="font-size:10px;font-family:sans-serif;" y="-10" transform="matrix(0,1,-1,0,337.5,365.625)" fill="#333">Relevanc</text>
<text dominant-baseline="central" text-anchor="middle" style="font-size:10px;font-family:sans-serif;" xml:space="preserve" transform="matrix(0,1,-1,0,337.5,365.625)" fill="#333">e of the Q</text>
<text dominant-baseline="central" text-anchor="middle" style="font-size:10px;font-family:sans-serif;" y="10" transform="matrix(0,1,-1,0,337.5,365.625)" fill="#333">OIs</text>
<text dominant-baseline="central" text-anchor="middle" style="font-size:10px;font-family:sans-serif;" y="-25" transform="matrix(0.407,-0.914,0.914,0.407,280.3027,353.4673)" fill="#333">Relevanc</text>
<text dominant-baseline="central" text-anchor="middle" style="font-size:10px;font-family:sans-serif;" xml:space="preserve" y="-15" transform="matrix(0.407,-0.914,0.914,0.407,280.3027,353.4673)" fill="#333">e of the V</text>
<text dominant-baseline="central" text-anchor="middle" style="font-size:10px;font-family:sans-serif;" xml:space="preserve" y="-5" transform="matrix(0.407,-0.914,0.914,0.407,280.3027,353.4673)" fill="#333">alidation </text>
<text dominant-baseline="central" text-anchor="middle" style="font-size:10px;font-family:sans-serif;" xml:space="preserve" y="5" transform="matrix(0.407,-0.914,0.914,0.407,280.3027,353.4673)" fill="#333">Activities t</text>
<text dominant-baseline="central" text-anchor="middle" style="font-size:10px;font-family:sans-serif;" xml:space="preserve" y="15" transform="matrix(0.407,-0.914,0.914,0.407,280.3027,353.4673)" fill="#333">o the CO</text>
<text dominant-baseline="central" text-anchor="middle" style="font-size:10px;font-family:sans-serif;" y="25" transform="matrix(0.407,-0.914,0.914,0.407,280.3027,353.4673)" fill="#333">U</text>
<text dominant-baseline="central" text-anchor="middle" style="font-size:10px;font-family:sans-serif;" y="-5" transform="matrix(0.743,-0.669,0.669,0.743,274.7972,281.4579)" fill="#333">Assessm</text>
<text dominant-baseline="central" text-anchor="middle" style="font-size:10px;font-family:sans-serif;" y="5" transform="matrix(0.743,-0.669,0.669,0.743,274.7972,281.4579)" fill="#333">ent</text>
<text dominant-baseline="central" text-anchor="middle" style="font-size:10px;font-family:sans-serif;" y="-15" transform="matrix(0.743,-0.669,0.669,0.743,232.9953,319.0965)" fill="#333">Comparis</text>
<text dominant-baseline="central" text-anchor="middle" style="font-size:10px;font-family:sans-serif;" xml:space="preserve" y="-5" transform="matrix(0.743,-0.669,0.669,0.743,232.9953,319.0965)" fill="#333">on Simula</text>
<text dominant-baseline="central" text-anchor="middle" style="font-size:10px;font-family:sans-serif;" xml:space="preserve" y="5" transform="matrix(0.743,-0.669,0.669,0.743,232.9953,319.0965)" fill="#333">tion &amp; Co</text>
<text dominant-baseline="central" text-anchor="middle" style="font-size:10px;font-family:sans-serif;" y="15" transform="matrix(0.743,-0.669,0.669,0.743,232.9953,319.0965)" fill="#333">mparator</text>
<text dominant-baseline="central" text-anchor="middle" style="font-size:10px;font-family:sans-serif;" y="-5" transform="matrix(0.866,0.5,-0.5,0.866,313.143,210.9375)" fill="#333">Verificatio</text>
<text dominant-baseline="central" text-anchor="middle" style="font-size:10px;font-family:sans-serif;" y="5" transform="matrix(0.866,0.5,-0.5,0.866,313.143,210.9375)" fill="#333">n</text>
<text dominant-baseline="central" text-anchor="middle" style="font-size:10px;font-family:sans-serif;" xml:space="preserve" y="-5" transform="matrix(0.995,-0.105,0.105,0.995,253.5872,233.8196)" fill="#333">Code Veri</text>
<text dominant-baseline="central" text-anchor="middle" style="font-size:10px;font-family:sans-serif;" y="5" transform="matrix(0.995,-0.105,0.105,0.995,253.5872,233.8196)" fill="#333">fication</text>
<text dominant-baseline="central" text-anchor="middle" style="font-size:10px;font-family:sans-serif;" xml:space="preserve" y="-10" transform="matrix(0.951,-0.309,0.309,0.951,203.7577,268.4555)" fill="#333">Software </text>
<text dominant-baseline="central" text-anchor="middle" style="font-size:10px;font-family:sans-serif;" xml:space="preserve" transform="matrix(0.951,-0.309,0.309,0.951,203.7577,268.4555)" fill="#333">Quality As</text>
<text dominant-baseline="central" text-anchor="middle" style="font-size:10px;font-family:sans-serif;" y="10" transform="matrix(0.951,-0.309,0.309,0.951,203.7577,268.4555)" fill="#333">surance</text>
<text dominant-baseline="central" text-anchor="middle" style="font-size:10px;font-family:sans-serif;" y="-10" transform="matrix(0.995,0.105,-0.105,0.995,197.6454,210.3007)" fill="#333">Numerical</text>
<text dominant-baseline="central" text-anchor="middle" style="font-size:10px;font-family:sans-serif;" xml:space="preserve" transform="matrix(0.995,0.105,-0.105,0.995,197.6454,210.3007)" fill="#333"> Code Ver</text>
<text dominant-baseline="central" text-anchor="middle" style="font-size:10px;font-family:sans-serif;" y="10" transform="matrix(0.995,0.105,-0.105,0.995,197.6454,210.3007)" fill="#333">ification</text>
<text dominant-baseline="central" text-anchor="middle" style="font-size:10px;font-family:sans-serif;" y="-10" transform="matrix(0.743,0.669,-0.669,0.743,274.7972,168.5421)" fill="#333">Calculatio</text>
<text dominant-baseline="central" text-anchor="middle" style="font-size:10px;font-family:sans-serif;" xml:space="preserve" transform="matrix(0.743,0.669,-0.669,0.743,274.7972,168.5421)" fill="#333">n Verificat</text>
<text dominant-baseline="central" text-anchor="middle" style="font-size:10px;font-family:sans-serif;" y="10" transform="matrix(0.743,0.669,-0.669,0.743,274.7972,168.5421)" fill="#333">ion</text>
<text dominant-baseline="central" text-anchor="middle" style="font-size:10px;font-family:sans-serif;" y="-5" transform="matrix(0.866,0.5,-0.5,0.866,215.7152,154.6875)" fill="#333">Discretiza</text>
<text dominant-baseline="central" text-anchor="middle" style="font-size:10px;font-family:sans-serif;" xml:space="preserve" y="5" transform="matrix(0.866,0.5,-0.5,0.866,215.7152,154.6875)" fill="#333">tion Error</text>
<text dominant-baseline="central" text-anchor="middle" style="font-size:10px;font-family:sans-serif;" y="-10" transform="matrix(0.588,0.809,-0.809,0.588,254.8427,111.232)" fill="#333">Numerical</text>
<text dominant-baseline="central" text-anchor="middle" style="font-size:10px;font-family:sans-serif;" xml:space="preserve" transform="matrix(0.588,0.809,-0.809,0.588,254.8427,111.232)" fill="#333"> Solver Er</text>
<text dominant-baseline="central" text-anchor="middle" style="font-size:10px;font-family:sans-serif;" y="10" transform="matrix(0.588,0.809,-0.809,0.588,254.8427,111.232)" fill="#333">ror</text>
<text dominant-baseline="central" text-anchor="middle" style="font-size:10px;font-family:sans-serif;" xml:space="preserve" y="-5" transform="matrix(0.208,0.978,-0.978,0.208,319.9575,142.4688)" fill="#333">User Erro</text>
<text dominant-baseline="central" text-anchor="middle" style="font-size:10px;font-family:sans-serif;" xml:space="preserve" y="5" transform="matrix(0.208,0.978,-0.978,0.208,319.9575,142.4688)" fill="#333">r Analysis</text>
<text dominant-baseline="central" text-anchor="middle" style="font-size:10px;font-family:sans-serif;" xml:space="preserve" y="-5" transform="matrix(0.208,0.978,-0.978,0.208,308.2624,87.448)" fill="#333">User Erro</text>
<text dominant-baseline="central" text-anchor="middle" style="font-size:10px;font-family:sans-serif;" y="5" transform="matrix(0.208,0.978,-0.978,0.208,308.2624,87.448)" fill="#333">rs</text>
<path d="M-5 -5l10 0l0 10l-10 0Z" transform="translate(337.5 445)" fill="rgb(0,0,0)" fill-opacity="0" stroke="#ccc" stroke-width="0"></path>
<style ><![CDATA[
.zr0-cls-0 {
animation:zr0-ani-0 1s cubic-bezier(0.65,0,0.35,1) both;
}
.zr0-cls-1 {
animation:zr0-ani-1 1s cubic-bezier(0.65,0,0.35,1) both;
}
.zr0-cls-2 {
animation:zr0-ani-2 1s cubic-bezier(0.65,0,0.35,1) both;
}
.zr0-cls-3 {
animation:zr0-ani-3 1s cubic-bezier(0.65,0,0.35,1) both;
}
.zr0-cls-4 {
animation:zr0-ani-4 1s cubic-bezier(0.65,0,0.35,1) both;
}
.zr0-cls-5 {
animation:zr0-ani-5 1s cubic-bezier(0.65,0,0.35,1) both;
}
.zr0-cls-6 {
animation:zr0-ani-6 1s cubic-bezier(0.65,0,0.35,1) both;
}
.zr0-cls-7 {
animation:zr0-ani-7 1s cubic-bezier(0.65,0,0.35,1) both;
}
.zr0-cls-8 {
animation:zr0-ani-8 1s cubic-bezier(0.65,0,0.35,1) both;
}
.zr0-cls-9 {
animation:zr0-ani-9 1s cubic-bezier(0.65,0,0.35,1) both;
}
.zr0-cls-10 {
animation:zr0-ani-10 1s cubic-bezier(0.65,0,0.35,1) both;
}
.zr0-cls-11 {
animation:zr0-ani-11 1s cubic-bezier(0.65,0,0.35,1) both;
}
.zr0-cls-12 {
animation:zr0-ani-12 1s cubic-bezier(0.65,0,0.35,1) both;
}
.zr0-cls-13 {
animation:zr0-ani-13 1s cubic-bezier(0.65,0,0.35,1) both;
}
.zr0-cls-14 {
animation:zr0-ani-14 1s cubic-bezier(0.65,0,0.35,1) both;
}
.zr0-cls-15 {
animation:zr0-ani-15 1s cubic-bezier(0.65,0,0.35,1) both;
}
.zr0-cls-16 {
animation:zr0-ani-16 1s cubic-bezier(0.65,0,0.35,1) both;
}
.zr0-cls-17 {
animation:zr0-ani-17 1s cubic-bezier(0.65,0,0.35,1) both;
}
.zr0-cls-18 {
animation:zr0-ani-18 1s cubic-bezier(0.65,0,0.35,1) both;
}
.zr0-cls-19 {
animation:zr0-ani-19 1s cubic-bezier(0.65,0,0.35,1) both;
}
.zr0-cls-20 {
animation:zr0-ani-20 1s cubic-bezier(0.65,0,0.35,1) both;
}
.zr0-cls-21 {
animation:zr0-ani-21 1s cubic-bezier(0.65,0,0.35,1) both;
}
@keyframes zr0-ani-0 {
0% {
d:path("M337.5 168.8A56.3 56.3 0 0 1 393.4 230.9L393.4 230.9A56.3 56.3 0 0 0 337.5 168.8Z");
}
100% {
d:path("M337.5 112.5A112.5 112.5 0 0 1 449.4 236.8L393.4 230.9A56.3 56.3 0 0 0 337.5 168.8Z");
}
}
@keyframes zr0-ani-1 {
0% {
d:path("M337.5 112.5A112.5 112.5 0 0 1 383.3 122.2L383.3 122.2A112.5 112.5 0 0 0 337.5 112.5Z");
}
100% {
d:path("M337.5 56.3A168.8 168.8 0 0 1 406.1 70.8L383.3 122.2A112.5 112.5 0 0 0 337.5 112.5Z");
}
}
@keyframes zr0-ani-2 {
0% {
d:path("M383.3 122.2A112.5 112.5 0 0 1 421.1 149.7L421.1 149.7A112.5 112.5 0 0 0 383.3 122.2Z");
}
100% {
d:path("M406.1 70.8A168.8 168.8 0 0 1 462.9 112.1L421.1 149.7A112.5 112.5 0 0 0 383.3 122.2Z");
}
}
@keyframes zr0-ani-3 {
0% {
d:path("M421.1 149.7A112.5 112.5 0 0 1 444.5 190.2L444.5 190.2A112.5 112.5 0 0 0 421.1 149.7Z");
}
100% {
d:path("M462.9 112.1A168.8 168.8 0 0 1 498 172.9L444.5 190.2A112.5 112.5 0 0 0 421.1 149.7Z");
}
}
@keyframes zr0-ani-4 {
0% {
d:path("M444.5 190.2A112.5 112.5 0 0 1 449.4 236.8L449.4 236.8A112.5 112.5 0 0 0 444.5 190.2Z");
}
100% {
d:path("M498 172.9A168.8 168.8 0 0 1 505.3 242.6L449.4 236.8A112.5 112.5 0 0 0 444.5 190.2Z");
}
}
@keyframes zr0-ani-5 {
0% {
d:path("M393.4 230.9A56.3 56.3 0 0 1 349.2 280L349.2 280A56.3 56.3 0 0 0 393.4 230.9Z");
}
100% {
d:path("M449.4 236.8A112.5 112.5 0 0 1 360.9 335L349.2 280A56.3 56.3 0 0 0 393.4 230.9Z");
}
}
@keyframes zr0-ani-6 {
0% {
d:path("M449.4 236.8A112.5 112.5 0 0 1 434.9 281.2L434.9 281.3A112.5 112.5 0 0 0 449.4 236.8Z");
}
100% {
d:path("M505.3 242.6A168.8 168.8 0 0 1 483.6 309.4L434.9 281.3A112.5 112.5 0 0 0 449.4 236.8Z");
}
}
@keyframes zr0-ani-7 {
0% {
d:path("M434.9 281.3A112.5 112.5 0 0 1 403.6 316L403.6 316A112.5 112.5 0 0 0 434.9 281.3Z");
}
100% {
d:path("M483.6 309.4A168.8 168.8 0 0 1 436.7 361.5L403.6 316A112.5 112.5 0 0 0 434.9 281.3Z");
}
}
@keyframes zr0-ani-8 {
0% {
d:path("M403.6 316A112.5 112.5 0 0 1 360.9 335L360.9 335A112.5 112.5 0 0 0 403.6 316Z");
}
100% {
d:path("M436.7 361.5A168.8 168.8 0 0 1 372.6 390.1L360.9 335A112.5 112.5 0 0 0 403.6 316Z");
}
}
@keyframes zr0-ani-9 {
0% {
d:path("M349.2 280A56.3 56.3 0 0 1 304.4 270.5L304.4 270.5A56.3 56.3 0 0 0 349.2 280Z");
}
100% {
d:path("M360.9 335A112.5 112.5 0 0 1 271.4 316L304.4 270.5A56.3 56.3 0 0 0 349.2 280Z");
}
}
@keyframes zr0-ani-10 {
0% {
d:path("M360.9 335A112.5 112.5 0 0 1 314.1 335L314.1 335A112.5 112.5 0 0 0 360.9 335Z");
}
100% {
d:path("M372.6 390.1A168.8 168.8 0 0 1 302.4 390.1L314.1 335A112.5 112.5 0 0 0 360.9 335Z");
}
}
@keyframes zr0-ani-11 {
0% {
d:path("M314.1 335A112.5 112.5 0 0 1 271.4 316L271.4 316A112.5 112.5 0 0 0 314.1 335Z");
}
100% {
d:path("M302.4 390.1A168.8 168.8 0 0 1 238.3 361.5L271.4 316A112.5 112.5 0 0 0 314.1 335Z");
}
}
@keyframes zr0-ani-12 {
0% {
d:path("M304.4 270.5A56.3 56.3 0 0 1 288.8 253.1L288.8 253.1A56.3 56.3 0 0 0 304.4 270.5Z");
}
100% {
d:path("M271.4 316A112.5 112.5 0 0 1 240.1 281.3L288.8 253.1A56.3 56.3 0 0 0 304.4 270.5Z");
}
}
@keyframes zr0-ani-13 {
0% {
d:path("M271.4 316A112.5 112.5 0 0 1 240.1 281.3L240.1 281.3A112.5 112.5 0 0 0 271.4 316Z");
}
100% {
d:path("M238.3 361.5A168.8 168.8 0 0 1 191.4 309.4L240.1 281.3A112.5 112.5 0 0 0 271.4 316Z");
}
}
@keyframes zr0-ani-14 {
0% {
d:path("M288.8 253.1A56.3 56.3 0 0 1 284 207.6L284 207.6A56.3 56.3 0 0 0 288.8 253.1Z");
}
100% {
d:path("M240.1 281.3A112.5 112.5 0 0 1 230.5 190.2L284 207.6A56.3 56.3 0 0 0 288.8 253.1Z");
}
}
@keyframes zr0-ani-15 {
0% {
d:path("M240.1 281.3A112.5 112.5 0 0 1 225.6 236.8L225.6 236.8A112.5 112.5 0 0 0 240.1 281.2Z");
}
100% {
d:path("M191.4 309.4A168.8 168.8 0 0 1 169.7 242.6L225.6 236.8A112.5 112.5 0 0 0 240.1 281.2Z");
}
}
@keyframes zr0-ani-16 {
0% {
d:path("M225.6 236.8A112.5 112.5 0 0 1 230.5 190.2L230.5 190.2A112.5 112.5 0 0 0 225.6 236.8Z");
}
100% {
d:path("M169.7 242.6A168.8 168.8 0 0 1 177 172.9L230.5 190.2A112.5 112.5 0 0 0 225.6 236.8Z");
}
}
@keyframes zr0-ani-17 {
0% {
d:path("M284 207.6A56.3 56.3 0 0 1 314.6 173.6L314.6 173.6A56.3 56.3 0 0 0 284 207.6Z");
}
100% {
d:path("M230.5 190.2A112.5 112.5 0 0 1 291.7 122.2L314.6 173.6A56.3 56.3 0 0 0 284 207.6Z");
}
}
@keyframes zr0-ani-18 {
0% {
d:path("M230.5 190.2A112.5 112.5 0 0 1 253.9 149.7L253.9 149.7A112.5 112.5 0 0 0 230.5 190.2Z");
}
100% {
d:path("M177 172.9A168.8 168.8 0 0 1 212.1 112.1L253.9 149.7A112.5 112.5 0 0 0 230.5 190.2Z");
}
}
@keyframes zr0-ani-19 {
0% {
d:path("M253.9 149.7A112.5 112.5 0 0 1 291.7 122.2L291.7 122.2A112.5 112.5 0 0 0 253.9 149.7Z");
}
100% {
d:path("M212.1 112.1A168.8 168.8 0 0 1 268.9 70.8L291.7 122.2A112.5 112.5 0 0 0 253.9 149.7Z");
}
}
@keyframes zr0-ani-20 {
0% {
d:path("M314.6 173.6A56.3 56.3 0 0 1 337.5 168.8L337.5 168.8A56.3 56.3 0 0 0 314.6 173.6Z");
}
100% {
d:path("M291.7 122.2A112.5 112.5 0 0 1 337.5 112.5L337.5 168.8A56.3 56.3 0 0 0 314.6 173.6Z");
}
}
@keyframes zr0-ani-21 {
0% {
d:path("M291.7 122.2A112.5 112.5 0 0 1 337.5 112.5L337.5 112.5A112.5 112.5 0 0 0 291.7 122.2Z");
}
100% {
d:path("M268.9 70.8A168.8 168.8 0 0 1 337.5 56.3L337.5 112.5A112.5 112.5 0 0 0 291.7 122.2Z");
}
}
]]>

</style>
</svg>
